<svg class="bi bi-github" width="128" height="128" fill="currentColor" version="1.1" viewBox="0 0 128 128" xmlns="http://www.w3.org/2000/svg">
 <path d="m64 15.233c-27.625 0-50 22.375-50 50 0 22.125 14.313 40.812 34.188 47.437 2.5 0.4375 3.4375-1.0625 3.4375-2.375 0-1.1875-0.0625-5.125-0.0625-9.3125-12.563 2.3125-15.813-3.0625-16.813-5.875-0.5625-1.4375-3-5.875-5.125-7.0625-1.75-0.9375-4.25-3.25-0.0625-3.3125 3.9375-0.0625 6.75 3.625 7.6875 5.125 4.5 7.5625 11.688 5.4375 14.563 4.125 0.4375-3.25 1.75-5.4375 3.1875-6.6875-11.125-1.25-22.75-5.5625-22.75-24.688 0-5.4375 1.9375-9.9375 5.125-13.438-0.5-1.25-2.25-6.375 0.5-13.25 0 0 4.1875-1.3125 13.75 5.125 4-1.125 8.25-1.6875 12.5-1.6875s8.5 0.5625 12.5 1.6875c9.5625-6.5 13.75-5.125 13.75-5.125 2.75 6.875 1 12 0.5 13.25 3.1875 3.5 5.125 7.9375 5.125 13.438 0 19.188-11.688 23.438-22.813 24.688 1.8125 1.5625 3.375 4.5625 3.375 9.25 0 6.6875-0.0625 12.062-0.0625 13.75 0 1.3125 0.9375 2.875 3.4375 2.375a50.075 50.075 0 0 0 34.062-47.437c0-27.625-22.375-50-50-50z" stroke-width="6.25"/>
</svg>
